<svg width="84" height="77" viewBox="0 0 84 77" fill="none" xmlns="http://www.w3.org/2000/svg">
<path fill-rule="evenodd" clip-rule="evenodd" d="M33.8791 20.761C39.0838 18.6516 44.9154 18.6516 50.1202 20.761C50.2054 20.4547 50.3759 20.1834 50.6167 19.9524C50.9927 19.6008 51.4439 19.4301 51.9604 19.4603C60.4646 19.9172 68.1163 24.7686 72.1678 32.2666C74.6198 36.8016 75.2164 42.2103 74.5045 47.2676C74.003 50.7881 72.8497 54.2885 71.0697 57.367C70.8039 57.824 70.3677 58.1203 69.8863 58.2258C69.3397 58.4066 68.718 58.3262 68.2266 57.9546C66.6221 56.7392 65.1078 55.4285 63.6938 54.0374C63.769 57.8894 63.3678 61.7514 62.5053 65.5129C62.4953 65.548 62.4853 65.5832 62.4803 65.6134C61.1616 70.2788 57.09 73.5783 52.3365 73.9902C45.838 77.2747 38.1612 77.2747 31.6627 73.9902C26.9093 73.5834 22.8427 70.2788 21.524 65.6134C21.5139 65.5832 21.5039 65.548 21.4939 65.5129C20.6314 61.7514 20.2303 57.8894 20.3105 54.0374C18.8915 55.4285 17.3822 56.7392 15.7726 57.9546C15.2812 58.3262 14.6595 58.4066 14.113 58.2258C13.6315 58.1203 13.1953 57.824 12.9296 57.367C11.1495 54.2885 9.99623 50.7881 9.49483 47.2676C8.78283 42.2103 9.38453 36.8016 11.8315 32.2666C15.883 24.7686 23.5397 19.9172 32.0389 19.4603C32.5553 19.4301 33.0066 19.6008 33.3827 19.9524C33.6284 20.1834 33.7939 20.4547 33.8791 20.761ZM53.7304 23.5282C53.7304 23.5532 53.7355 23.5783 53.7355 23.6035C54.3422 35.33 59.8178 46.2883 68.8383 53.8064C71.6563 47.7548 72.1478 39.86 68.9788 33.9942C65.8398 28.1887 60.1637 24.2463 53.7204 23.282C53.7204 23.3675 53.7254 23.4478 53.7304 23.5282ZM50.1753 24.7686C45.0408 22.1521 38.9585 22.1521 33.824 24.7737C33.157 33.8737 29.7924 42.5017 24.2567 49.5978C23.63 54.6149 23.8907 59.7274 25.0189 64.6542C25.9164 67.7829 28.6141 70.0026 31.7831 70.3542C32.0338 70.314 32.2945 70.3291 32.5503 70.3994C32.5804 70.3994 32.6105 70.3994 32.6406 70.3994C35.6742 70.4095 38.4621 68.7119 39.8259 65.99C39.9162 65.8091 40.0315 65.6485 40.172 65.5129C40.1519 64.408 40.1419 63.3032 40.1519 62.2033C39.9413 62.3239 39.7458 62.4645 39.5652 62.6302C38.8131 63.2881 37.6648 63.2178 37.003 62.4695C36.346 61.7162 36.4163 60.5661 37.1634 59.9033C38.4922 58.728 40.192 58.0751 41.962 58.045C41.9821 58.045 42.0021 58.045 42.0172 58.045C42.0273 58.045 42.0322 58.045 42.0372 58.045C43.8073 58.0751 45.5071 58.728 46.8358 59.9033C47.5829 60.5661 47.6582 61.7162 46.9963 62.4695C46.3344 63.2178 45.1862 63.2881 44.434 62.6302C44.2335 62.4494 44.0129 62.2887 43.7772 62.1581C43.7722 63.268 43.7772 64.3779 43.7972 65.4828C43.9476 65.6284 44.078 65.7942 44.1783 65.99C45.5371 68.7119 48.3251 70.4095 51.3587 70.3994C51.3888 70.3994 51.4189 70.3994 51.454 70.3994C51.7047 70.3291 51.9654 70.314 52.2162 70.3542C55.3852 70.0026 58.0829 67.7829 58.9804 64.6542C60.1086 59.7274 60.3693 54.6149 59.7425 49.5978C54.2068 42.5017 50.8422 33.8737 50.1753 24.7686ZM38.4571 72.4936C40.7987 72.9305 43.2006 72.9305 45.5422 72.4936C44.1733 71.7051 42.9598 70.6404 42.0021 69.3498C41.0394 70.6404 39.8259 71.7051 38.4571 72.4936ZM30.2839 23.282C23.8356 24.2463 18.1594 28.1887 15.0205 33.9942C11.8515 39.86 12.3429 47.7548 15.1609 53.8064C24.2667 46.2179 29.7574 35.1342 30.2839 23.282ZM44.4441 46.7955C45.828 45.1432 47.8337 44.1439 49.9798 44.0283C52.1208 43.9128 54.2369 44.6963 55.7863 46.1778C56.5033 46.8708 56.5334 48.0259 55.8414 48.7491C55.1495 49.4723 54.0012 49.4974 53.2792 48.8044C52.4518 48.0109 51.3186 47.594 50.1753 47.6543C49.027 47.7145 47.9591 48.2519 47.2169 49.1308C46.5751 49.8992 45.4269 49.9996 44.6597 49.3518C43.8976 48.7089 43.7972 47.5589 44.4441 46.7955ZM28.0826 46.7955C29.4665 45.1432 31.4722 44.1439 33.6184 44.0283C35.7594 43.9128 37.8755 44.6963 39.4248 46.1778C40.1468 46.8708 40.172 48.0259 39.48 48.7491C38.7881 49.4723 37.6398 49.4974 36.9178 48.8044C36.0904 48.0109 34.9572 47.594 33.8139 47.6543C32.6707 47.7145 31.5976 48.2519 30.8555 49.1308C30.2137 49.8992 29.0654 49.9996 28.3032 49.3518C27.536 48.7089 27.4408 47.5589 28.0826 46.7955Z" fill="#0F637A"/>
<path d="M7.19856 17.4795L8.31316 18.716L6.44566 20.399L8.73076 22.934L11.0798 20.8166L12.1943 22.0531L8.48486 25.3963L0.682861 16.7399L4.39336 13.3967L5.50796 14.6331L3.15786 16.7505L5.33116 19.162L7.19856 17.4795Z" fill="#222222"/>
<path d="M11.3428 8.36133C12.8648 7.43573 14.2009 7.87013 15.1691 9.46323L15.3601 9.77613L13.8808 10.6758L13.6299 10.2633C13.1971 9.55213 12.748 9.45503 12.2501 9.75783C11.7523 10.0606 11.6324 10.5041 12.0652 11.2153C13.3108 13.2636 16.6027 11.7873 18.333 14.6321C19.3023 16.2252 19.0594 17.6202 17.5232 18.5545C15.987 19.4892 14.6367 19.063 13.6675 17.4699L13.2956 16.8582L14.7749 15.9585L15.2077 16.6697C15.6406 17.381 16.1089 17.4465 16.6068 17.1437C17.1046 16.8409 17.2621 16.3944 16.8293 15.6832C15.5826 13.6349 12.2918 15.1112 10.5605 12.2663C9.59223 10.6732 9.82083 9.28693 11.3428 8.36133Z" fill="#222222"/>
<path d="M23.9526 2.6554L24.5398 4.2124L22.7486 4.8881L26.2731 14.2323L24.5601 14.8785L21.0356 5.5342L19.2454 6.2099L18.6571 4.6523L23.9526 2.6554Z" fill="#222222"/>
<path d="M32.3947 0.650867C34.2002 0.341467 35.2589 1.19087 35.5728 3.02987L36.5675 8.84047C36.8824 10.6789 36.1672 11.8321 34.3617 12.141L31.5057 12.6302L29.5387 1.13957L32.3947 0.650867ZM33.0307 10.6794L34.0478 10.5052C34.6228 10.4071 34.9165 10.0526 34.7762 9.23157L33.7531 3.25637C33.6129 2.43597 33.2177 2.19927 32.6426 2.29777L31.6256 2.47207L33.0307 10.6794Z" fill="#222222"/>
<path d="M50.6514 1.94823C50.0744 1.86593 49.6669 2.12703 49.5501 2.95103L49.3733 4.18703L47.6593 3.94273L47.8198 2.82203C48.083 0.976427 49.1559 0.053427 50.9359 0.307427C52.715 0.560927 53.4871 1.74713 53.224 3.59263C52.7079 7.21782 48.9059 8.05502 48.6357 9.94982C48.6245 10.0321 48.6123 10.1144 48.6174 10.1993L52.0444 10.688L51.8097 12.3359L46.5691 11.5887L46.7713 10.1713C47.2559 6.77683 50.9278 6.72913 51.4023 3.40013C51.5506 2.36233 51.2275 2.03003 50.6514 1.94823Z" fill="#222222"/>
<path d="M62.1243 3.03789C63.822 3.63279 64.3971 4.96379 63.7794 6.72399L61.7748 12.4447C61.157 14.2049 59.8779 14.8861 58.1801 14.2913C56.4834 13.6959 55.9083 12.3654 56.525 10.6052L58.5306 4.88399C59.1473 3.12379 60.4275 2.44299 62.1243 3.03789ZM58.7308 12.7195C59.2815 12.912 59.7316 12.7347 60.0069 11.9488L62.0897 6.00819C62.3651 5.22229 62.1233 4.80269 61.5736 4.60969C61.0239 4.41709 60.5728 4.5944 60.2975 5.3803L58.2157 11.3209C57.9403 12.1068 58.1811 12.5264 58.7308 12.7195Z" fill="#222222"/>
<path d="M71.884 9.41488C71.3821 9.11868 70.9056 9.20508 70.4829 9.92188L69.8479 10.9968L68.3574 10.117L68.9325 9.14208C69.8804 7.53628 71.2246 7.09278 72.773 8.00668C74.3214 8.92058 74.5825 10.312 73.6346 11.9173C71.7732 15.0711 67.9398 14.3934 66.9665 16.0424C66.9248 16.114 66.8822 16.1856 66.8537 16.2659L69.8357 18.0256L68.9894 19.4592L64.4315 16.7683L65.159 15.5354C66.9015 12.5823 70.3142 13.9397 72.0242 11.0441C72.5566 10.1408 72.3859 9.71108 71.884 9.41488Z" fill="#222222"/>
<path d="M82.3978 15.2683L83.3173 16.0882L75.561 24.7893L74.1935 23.5706L80.1107 16.933L79.0541 15.9906L79.9187 15.0214C80.9754 15.9632 81.6652 15.664 82.3978 15.2683Z" fill="#222222"/>
</svg>
