<svg width="124" height="38" viewBox="0 0 124 38" fill="none" xmlns="http://www.w3.org/2000/svg">
<path d="M11.6399 5.38003C11.6399 6.19337 11.4533 6.94003 11.0799 7.62003C10.7066 8.2867 10.1333 8.8267 9.35994 9.24003C8.58661 9.65337 7.62661 9.86003 6.47994 9.86003H4.35994V14.9H0.939941V0.860034H6.47994C7.59994 0.860034 8.54661 1.05337 9.31994 1.44003C10.0933 1.8267 10.6733 2.36003 11.0599 3.04003C11.4466 3.72003 11.6399 4.50003 11.6399 5.38003ZM6.21994 7.14003C6.87327 7.14003 7.35994 6.9867 7.67994 6.68003C7.99994 6.37337 8.15994 5.94003 8.15994 5.38003C8.15994 4.82003 7.99994 4.3867 7.67994 4.08003C7.35994 3.77337 6.87327 3.62003 6.21994 3.62003H4.35994V7.14003H6.21994Z" fill="#063643"/>
<path d="M16.8404 0.860034V14.9H13.4204V0.860034H16.8404Z" fill="#063643"/>
<path d="M31.8788 14.9H28.4588L22.7388 6.24003V14.9H19.3188V0.860034H22.7388L28.4588 9.56003V0.860034H31.8788V14.9Z" fill="#063643"/>
<path d="M39.6179 0.860034C41.0979 0.860034 42.3912 1.15337 43.4979 1.74003C44.6046 2.3267 45.4579 3.15337 46.0579 4.22003C46.6712 5.27337 46.9779 6.49337 46.9779 7.88003C46.9779 9.25337 46.6712 10.4734 46.0579 11.54C45.4579 12.6067 44.5979 13.4334 43.4779 14.02C42.3712 14.6067 41.0846 14.9 39.6179 14.9H34.3579V0.860034H39.6179ZM39.3979 11.94C40.6912 11.94 41.6979 11.5867 42.4179 10.88C43.1379 10.1734 43.4979 9.17337 43.4979 7.88003C43.4979 6.5867 43.1379 5.58003 42.4179 4.86003C41.6979 4.14003 40.6912 3.78003 39.3979 3.78003H37.7779V11.94H39.3979Z" fill="#063643"/>
<path d="M55.5292 15.04C54.2092 15.04 52.9958 14.7334 51.8892 14.12C50.7958 13.5067 49.9225 12.6534 49.2692 11.56C48.6292 10.4534 48.3092 9.21337 48.3092 7.84003C48.3092 6.4667 48.6292 5.23337 49.2692 4.14003C49.9225 3.0467 50.7958 2.19337 51.8892 1.58003C52.9958 0.966701 54.2092 0.660034 55.5292 0.660034C56.8492 0.660034 58.0558 0.966701 59.1492 1.58003C60.2558 2.19337 61.1225 3.0467 61.7492 4.14003C62.3892 5.23337 62.7092 6.4667 62.7092 7.84003C62.7092 9.21337 62.3892 10.4534 61.7492 11.56C61.1092 12.6534 60.2425 13.5067 59.1492 14.12C58.0558 14.7334 56.8492 15.04 55.5292 15.04ZM55.5292 11.92C56.6492 11.92 57.5425 11.5467 58.2092 10.8C58.8892 10.0534 59.2292 9.0667 59.2292 7.84003C59.2292 6.60003 58.8892 5.61337 58.2092 4.88003C57.5425 4.13337 56.6492 3.76003 55.5292 3.76003C54.3958 3.76003 53.4892 4.1267 52.8092 4.86003C52.1425 5.59337 51.8092 6.5867 51.8092 7.84003C51.8092 9.08003 52.1425 10.0734 52.8092 10.82C53.4892 11.5534 54.3958 11.92 55.5292 11.92Z" fill="#063643"/>
<path d="M71.7718 14.9L68.8518 9.60003H68.0318V14.9H64.6118V0.860034H70.3518C71.4585 0.860034 72.3985 1.05337 73.1718 1.44003C73.9585 1.8267 74.5451 2.36003 74.9318 3.04003C75.3185 3.7067 75.5118 4.45337 75.5118 5.28003C75.5118 6.21337 75.2451 7.0467 74.7118 7.78003C74.1918 8.51337 73.4185 9.03337 72.3918 9.34003L75.6318 14.9H71.7718ZM68.0318 7.18003H70.1518C70.7785 7.18003 71.2451 7.0267 71.5518 6.72003C71.8718 6.41337 72.0318 5.98003 72.0318 5.42003C72.0318 4.8867 71.8718 4.4667 71.5518 4.16003C71.2451 3.85337 70.7785 3.70003 70.1518 3.70003H68.0318V7.18003Z" fill="#063643"/>
<path d="M86.3987 12.42H81.1587L80.3187 14.9H76.7387L81.8187 0.860034H85.7787L90.8587 14.9H87.2387L86.3987 12.42ZM85.5187 9.78003L83.7787 4.64003L82.0587 9.78003H85.5187Z" fill="#063643"/>
<path d="M108.305 0.860034V14.9H104.885V6.48003L101.745 14.9H98.9848L95.8248 6.46003V14.9H92.4048V0.860034H96.4448L100.385 10.58L104.285 0.860034H108.305Z" fill="#063643"/>
<path d="M119.504 12.42H114.264L113.424 14.9H109.844L114.924 0.860034H118.884L123.964 14.9H120.344L119.504 12.42ZM118.624 9.78003L116.884 4.64003L115.164 9.78003H118.624Z" fill="#063643"/>
<path d="M50.2399 27.38C50.2399 28.1934 50.0533 28.94 49.6799 29.62C49.3066 30.2867 48.7333 30.8267 47.9599 31.24C47.1866 31.6534 46.2266 31.86 45.0799 31.86H42.9599V36.9H39.5399V22.86H45.0799C46.1999 22.86 47.1466 23.0534 47.9199 23.44C48.6933 23.8267 49.2733 24.36 49.6599 25.04C50.0466 25.72 50.2399 26.5 50.2399 27.38ZM44.8199 29.14C45.4733 29.14 45.9599 28.9867 46.2799 28.68C46.5999 28.3734 46.7599 27.94 46.7599 27.38C46.7599 26.82 46.5999 26.3867 46.2799 26.08C45.9599 25.7734 45.4733 25.62 44.8199 25.62H42.9599V29.14H44.8199Z" fill="#063643"/>
<path d="M55.4404 25.6V28.44H60.0204V31.08H55.4404V34.16H60.6204V36.9H52.0204V22.86H60.6204V25.6H55.4404Z" fill="#063643"/>
<path d="M72.9407 22.86V25.6H69.2207V36.9H65.8007V25.6H62.0807V22.86H72.9407Z" fill="#063643"/>
<path d="M79.7371 37.04C78.7105 37.04 77.7905 36.8734 76.9771 36.54C76.1638 36.2067 75.5105 35.7134 75.0171 35.06C74.5371 34.4067 74.2838 33.62 74.2571 32.7H77.8971C77.9505 33.22 78.1305 33.62 78.4371 33.9C78.7438 34.1667 79.1438 34.3 79.6371 34.3C80.1438 34.3 80.5438 34.1867 80.8371 33.96C81.1305 33.72 81.2771 33.3934 81.2771 32.98C81.2771 32.6334 81.1571 32.3467 80.9171 32.12C80.6905 31.8934 80.4038 31.7067 80.0571 31.56C79.7238 31.4134 79.2438 31.2467 78.6171 31.06C77.7105 30.78 76.9705 30.5 76.3971 30.22C75.8238 29.94 75.3305 29.5267 74.9171 28.98C74.5038 28.4334 74.2971 27.72 74.2971 26.84C74.2971 25.5334 74.7705 24.5134 75.7171 23.78C76.6638 23.0334 77.8971 22.66 79.4171 22.66C80.9638 22.66 82.2105 23.0334 83.1571 23.78C84.1038 24.5134 84.6105 25.54 84.6771 26.86H80.9771C80.9505 26.4067 80.7838 26.0534 80.4771 25.8C80.1705 25.5334 79.7771 25.4 79.2971 25.4C78.8838 25.4 78.5505 25.5134 78.2971 25.74C78.0438 25.9534 77.9171 26.2667 77.9171 26.68C77.9171 27.1334 78.1305 27.4867 78.5571 27.74C78.9838 27.9934 79.6505 28.2667 80.5571 28.56C81.4638 28.8667 82.1971 29.16 82.7571 29.44C83.3305 29.72 83.8238 30.1267 84.2371 30.66C84.6505 31.1934 84.8571 31.88 84.8571 32.72C84.8571 33.52 84.6505 34.2467 84.2371 34.9C83.8371 35.5534 83.2505 36.0734 82.4771 36.46C81.7038 36.8467 80.7905 37.04 79.7371 37.04Z" fill="#063643"/>
</svg>
