<svg width="132" height="20" viewBox="0 0 132 20" fill="none" xmlns="http://www.w3.org/2000/svg">
<path d="M9.94989 2.26159C10.1209 1.9128 10.6152 1.9128 10.7862 2.26159L13.0006 6.77669C13.0685 6.9152 13.1998 7.0112 13.3517 7.03341L18.3031 7.75744C18.6856 7.81337 18.8383 8.28639 18.5616 8.55788L14.9787 12.0724C14.8688 12.1802 14.8186 12.3355 14.8446 12.4878L15.6904 17.4504C15.7557 17.8337 15.3559 18.126 15.0138 17.9451L10.5851 15.602C10.4492 15.5302 10.2869 15.5302 10.1511 15.602L5.72238 17.9451C5.38027 18.126 4.98042 17.8337 5.04576 17.4504L5.89156 12.4878C5.91751 12.3355 5.86736 12.1802 5.75745 12.0724L2.17457 8.55788C1.89779 8.28639 2.05052 7.81337 2.43302 7.75744L7.38443 7.03341C7.53632 7.0112 7.66763 6.9152 7.73555 6.77669L9.94989 2.26159Z" fill="#FFD700" stroke="#F1CB00" stroke-width="2" stroke-linejoin="round"/>
<path d="M37.7751 2.26159C37.9461 1.9128 38.4404 1.9128 38.6114 2.26159L40.8258 6.77669C40.8937 6.9152 41.025 7.0112 41.1769 7.03341L46.1283 7.75744C46.5108 7.81337 46.6635 8.28639 46.3868 8.55788L42.8039 12.0724C42.694 12.1802 42.6438 12.3355 42.6698 12.4878L43.5156 17.4504C43.5809 17.8337 43.1811 18.126 42.8389 17.9451L38.4103 15.602C38.2744 15.5302 38.1121 15.5302 37.9763 15.602L33.5476 17.9451C33.2055 18.126 32.8056 17.8337 32.871 17.4504L33.7168 12.4878C33.7427 12.3355 33.6926 12.1802 33.5826 12.0724L29.9998 8.55788C29.723 8.28639 29.8757 7.81337 30.2582 7.75744L35.2096 7.03341C35.3615 7.0112 35.4928 6.9152 35.5607 6.77669L37.7751 2.26159Z" fill="#FFD700" stroke="#F1CB00" stroke-width="2" stroke-linejoin="round"/>
<path d="M65.5992 2.26159C65.7703 1.9128 66.2645 1.9128 66.4356 2.26159L68.6499 6.77669C68.7178 6.9152 68.8491 7.0112 69.001 7.03341L73.9524 7.75744C74.3349 7.81337 74.4877 8.28639 74.2109 8.55788L70.628 12.0724C70.5181 12.1802 70.4679 12.3355 70.4939 12.4878L71.3397 17.4504C71.405 17.8337 71.0052 18.126 70.6631 17.9451L66.2344 15.602C66.0985 15.5302 65.9362 15.5302 65.8004 15.602L61.3717 17.9451C61.0296 18.126 60.6297 17.8337 60.6951 17.4504L61.5409 12.4878C61.5668 12.3355 61.5167 12.1802 61.4068 12.0724L57.8239 8.55788C57.5471 8.28639 57.6998 7.81337 58.0823 7.75744L63.0338 7.03341C63.1856 7.0112 63.3169 6.9152 63.3849 6.77669L65.5992 2.26159Z" fill="#FFD700" stroke="#F1CB00" stroke-width="2" stroke-linejoin="round"/>
<path d="M93.4226 2.26159C93.5936 1.9128 94.0878 1.9128 94.2589 2.26159L96.4732 6.77669C96.5412 6.9152 96.6725 7.0112 96.8244 7.03341L101.776 7.75744C102.158 7.81337 102.311 8.28639 102.034 8.55788L98.4513 12.0724C98.3414 12.1802 98.2913 12.3355 98.3172 12.4878L99.163 17.4504C99.2284 17.8337 98.8285 18.126 98.4864 17.9451L94.0577 15.602C93.9219 15.5302 93.7596 15.5302 93.6237 15.602L89.195 17.9451C88.8529 18.126 88.4531 17.8337 88.5184 17.4504L89.3642 12.4878C89.3902 12.3355 89.34 12.1802 89.2301 12.0724L85.6472 8.55788C85.3705 8.28639 85.5232 7.81337 85.9057 7.75744L90.8571 7.03341C91.009 7.0112 91.1403 6.9152 91.2082 6.77669L93.4226 2.26159Z" fill="#FFD700" stroke="#F1CB00" stroke-width="2" stroke-linejoin="round"/>
<path d="M121.247 2.26159C121.418 1.9128 121.912 1.9128 122.083 2.26159L124.297 6.77669C124.365 6.9152 124.497 7.0112 124.649 7.03341L129.6 7.75744C129.982 7.81337 130.135 8.28639 129.858 8.55788L126.276 12.0724C126.166 12.1802 126.116 12.3355 126.141 12.4878L126.987 17.4504C127.053 17.8337 126.653 18.126 126.311 17.9451L121.882 15.602C121.746 15.5302 121.584 15.5302 121.448 15.602L117.019 17.9451C116.677 18.126 116.277 17.8337 116.343 17.4504L117.188 12.4878C117.214 12.3355 117.164 12.1802 117.054 12.0724L113.471 8.55788C113.195 8.28639 113.347 7.81337 113.73 7.75744L118.681 7.03341C118.833 7.0112 118.965 6.9152 119.032 6.77669L121.247 2.26159Z" fill="#FFD700" stroke="#F1CB00" stroke-width="2" stroke-linejoin="round"/>
</svg>
